<svg width="536" height="440" viewBox="0 0 536 440" fill="none" xmlns="http://www.w3.org/2000/svg">
<path d="M452.748 20.3967C509.536 51.8924 543.854 131.654 534.458 202.008C525.47 272.771 472.767 334.127 415.979 379.121C359.191 423.705 297.908 452.338 254.194 434.749C210.07 417.57 183.515 354.169 142.252 309.176C100.988 264.591 45.0171 238.003 18.0529 184.42C-9.31982 130.836 -6.86853 50.2563 34.3948 18.7605C75.6582 -12.7352 156.142 4.85333 236.218 5.26237C316.293 5.6714 395.96 -11.099 452.748 20.3967Z" fill="#98DBD7"/>
<path d="M444.495 31.9596C497.363 61.2363 529.312 135.379 520.564 200.776C512.197 266.553 463.132 323.586 410.264 365.41C357.396 406.854 300.344 433.469 259.647 417.119C218.569 401.15 193.847 342.217 155.432 300.393C117.017 258.949 64.9096 234.235 39.8067 184.427C14.3235 134.618 16.6056 59.7155 55.0206 30.4388C93.4355 1.16208 168.364 17.5114 242.911 17.8916C317.459 18.2718 391.627 2.68294 444.495 31.9596Z" fill="#03A2A6"/>
<circle cx="297" cy="370" r="33" fill="#95D8E0"/>
</svg>
